<?xml version="1.0" encoding="UTF-8" standalone="no"?>
<svg
   xmlns:dc="http://purl.org/dc/elements/1.1/"
   xmlns:cc="http://creativecommons.org/ns#"
   xmlns:rdf="http://www.w3.org/1999/02/22-rdf-syntax-ns#"
   xmlns:svg="http://www.w3.org/2000/svg"
   xmlns="http://www.w3.org/2000/svg"
   xmlns:sodipodi="http://sodipodi.sourceforge.net/DTD/sodipodi-0.dtd"
   xmlns:inkscape="http://www.inkscape.org/namespaces/inkscape"
   width="1000"
   height="249.98323"
   viewBox="0 0 1000 249.98323"
   version="1.1"
   id="svg16"
   sodipodi:docname="horizLogo.svg"
   inkscape:version="0.92.4 (5da689c313, 2019-01-14)">
  <metadata
     id="metadata20">
    <rdf:RDF>
      <cc:Work
         rdf:about="">
        <dc:format>image/svg+xml</dc:format>
        <dc:type
           rdf:resource="http://purl.org/dc/dcmitype/StillImage" />
        <dc:title>horizLogo</dc:title>
      </cc:Work>
    </rdf:RDF>
  </metadata>
  <sodipodi:namedview
     pagecolor="#ffffff"
     bordercolor="#111111"
     borderopacity="1"
     objecttolerance="10"
     gridtolerance="10"
     guidetolerance="10"
     inkscape:pageopacity="0"
     inkscape:pageshadow="2"
     inkscape:window-width="1920"
     inkscape:window-height="1017"
     id="namedview18"
     showgrid="false"
     fit-margin-top="0"
     fit-margin-left="0"
     fit-margin-right="0"
     fit-margin-bottom="0"
     inkscape:zoom="0.57465278"
     inkscape:cx="781.34139"
     inkscape:cy="-67.214508"
     inkscape:window-x="1912"
     inkscape:window-y="-8"
     inkscape:window-maximized="1"
     inkscape:current-layer="svg16" />
  <title
     id="title2">horizLogo</title>
  <defs
     id="defs9">
    <linearGradient
       x1="98.773941"
       y1="137.549"
       x2="37.045738"
       y2="4.5004005"
       id="linearGradient-1"
       gradientTransform="scale(0.89643299,1.1155323)"
       gradientUnits="userSpaceOnUse">
      <stop
         stop-color="#8026FF"
         offset="25%"
         id="stop4" />
      <stop
         stop-color="#FF1A58"
         offset="75%"
         id="stop6" />
    </linearGradient>
  </defs>
  <g
     id="Page-1"
     transform="matrix(1.7361111,0,0,1.7361111,0,-0.0167657)"
     style="fill:none;fill-rule:evenodd;stroke:none;stroke-width:1">
    <g
       id="horizLogo"
       transform="translate(0,0.009657)"
       style="fill-rule:nonzero">
      <path
         d="m 443.21,58.160343 v 10.83 c -2.18385,-1.045893 -4.57876,-1.576194 -7,-1.55 -4.36,0 -16.77,1.9 -16.77,27.15 v 22.399997 h -11.5 V 58.390343 h 11.5 v 9.05 c 2.53,-6.63 9.51,-10.59 17.7,-10.59 2.08911,0.03914 4.15069,0.484062 6.07,1.31 z m -119.67,46.179997 5.25,9.09 c -4.18083,2.8339 -9.10931,4.36187 -14.16,4.39 -12,0 -17.88,-6.55 -17.88,-20.139997 v -29 H 288 v -10.28 h 8.71 v -18.41 h 11.42 v 18.4 h 18.61 v 10.31 h -18.57 v 29.33 c 0,6.309997 4.44,8.679997 8.12,8.679997 2.92,0.01 5.71,-1.53 7.25,-2.37 z M 212.86,91.830343 h -51 c 1.66,10.429997 9.49,16.239997 19.68,16.239997 7.59,0 12.92,-2.37 16.36,-7.47 h 12.45 c -4.5,10.91 -15.17,17.9 -28.81,17.9 -18.49,0 -31.53,-13 -31.53,-30.819997 0,-17.82 13,-30.83 31.53,-30.83 18.53,0 31.3,13 31.3,30.83 z m -11.86,-10.08 c -2.25,-9.37 -9.95,-14.46 -19.44,-14.46 -9.72,0 -17.07,5.21 -19.32,14.46 z m 196,10.08 h -51 c 1.66,10.429997 9.49,16.239997 19.68,16.239997 7.59,0 12.92,-2.37 16.36,-7.47 h 12.45 c -4.51,10.91 -15.18,17.9 -28.81,17.9 -18.49,0 -31.53,-13 -31.53,-30.819997 0,-17.82 13,-30.83 31.53,-30.83 18.53,0 31.3,13 31.3,30.83 z m -11.86,-10.08 c -2.25,-9.37 -9.95,-14.46 -19.44,-14.46 -9.72,0 -17.07,5.21 -19.32,14.46 z m 123.4,6.4 v 24.539997 c 0,22.52 -13.76,31.3 -31.07,31.3 -14.34,0 -25.6,-6.05 -29.64,-19.57 h 11.5 c 2.73,6.76 9.61,9.73 18.14,9.73 12,0 19.92,-5.69 19.92,-21 v -7.23 c -4,7.59 -12.21,12.1 -22.05,12.1 -15.18,0 -29.64,-10.43 -29.64,-30.349997 0,-17.79 13,-30.83 31.54,-30.83 18.54,0 31.25,12.46 31.25,31.31 z m -11.15,-0.47 c 0,-11.86 -8.06,-20.39 -20.15,-20.39 -12.09,0 -20.24,8.53 -20.24,20.39 0,11.86 8.06,19.799997 20.16,19.799997 12.1,0 20.18,-7.949997 20.18,-19.799997 z m 21.32,36.739997 h 11.26 c 2.73,6.64 8.54,9.73 17,9.73 10.91,0 17.9,-5.22 17.9,-18.5 v -8.88 c -3.77,7.22 -10.87,11.22 -19.65,11.22 -14.58,0 -27,-9.13 -27,-29.639997 v -30 h 11.26 v 30 c 0,12.679997 7,19.089997 17.66,19.089997 10.44,0 17.67,-6.64 17.67,-19.089997 v -30 H 576 v 56.999997 c 0,20.4 -12.92,28.58043 -29.16,28.58043 -13.48,0.0596 -24.74,-6.23043 -28.18,-19.51043 z m -283.85,-65.999997 -0.05,8.9 c 3.68,-7.24 10.79,-10.44 19.56,-10.44 14.59,0 27,9.61 27,30.12 V 117.00034 H 270.09 V 86.990343 c 0,-12.69 -7,-19.09 -17.66,-19.09 -10.44,0 -17.67,6.64 -17.67,19.09 V 116.99034 H 223.5 V 58.390343 Z"
         id="Shape"
         inkscape:connector-curvature="0"
         style="fill:#231f20" />
      <path
         d="m 3.22,65.990343 c 4.14,-17 17.63,-26.55 35.47,-26.55 17.41,0 31.56,9.36 35.69,26.55 z m 102,-27.47 C 95.010053,20.823852 78.185699,7.9104611 58.451099,2.623269 38.7165,-2.6639232 17.689664,0.10857164 0,10.330343 l 9.71,16.82 c 8.966071,-4.606887 18.920211,-6.958124 29,-6.85 33.95,0 57.45,23.94 57.45,56.58 v 7.62 H 2.57 c 3.05,19.149997 17.41,29.809997 36.12,29.809997 13.93,0 23.72,-4.35 30,-13.71 h 22.85 c -4.682967,11.40099 -13.311915,20.7363 -24.31,26.3 l 9.77,16.86 c 17.699206,-10.20998 30.61455,-27.03615 35.90188,-46.773165 5.28734,-19.737012 2.51307,-40.766268 -7.71188,-58.456832 z"
         id="path12"
         style="fill:url(#linearGradient-1)"
         inkscape:connector-curvature="0" />
    </g>
  </g>
</svg>
