<?xml version="1.0" standalone="no"?>
<!DOCTYPE svg PUBLIC "-//W3C//DTD SVG 1.0//EN" "http://www.w3.org/TR/2001/REC-SVG-20010904/DTD/svg10.dtd">
<svg xmlns="http://www.w3.org/2000/svg" xmlns:xlink="http://www.w3.org/1999/xlink" id="body_1" width="178" height="55" viewBox="0 0 178 55">

<g transform="matrix(0.33969468 0 0 0.33742332 0 0)">
    <path d="M56 129.8L146.2 129.8L146.2 162.7L0 162.7L0 0L56 0L56 129.8" stroke="none" fill="#461D7C" fill-rule="nonzero" />
    <path d="M208.3 0L334.2 0L334.2 33.2L234.90001 33.2C 224.50002 33.2 216.00002 39.5 216.00002 47.2L216.00002 47.2L216.00002 64.7L334.2 64.7L334.2 126.5C 334.2 146.4 312.30002 162.7 285.30002 162.7L285.30002 162.7L159.6 162.7L159.6 129.5L258.7 129.5C 269.30002 129.5 277.80002 123.2 277.80002 115.5L277.80002 115.5L277.80002 97.8L159.6 97.8L159.6 36.2C 159.6 16.3 181.5 0 208.3 0" stroke="none" fill="#461D7C" fill-rule="nonzero" />
    <path d="M466.9 0L523.1 0L523.1 126.5C 523.1 146.4 501.19998 162.7 474.39996 162.7L474.39996 162.7L349 162.7L349 0.4L404.8 0.4L404.8 129.79999L447.8 129.79999C 458.4 129.79999 466.9 123.499985 466.9 115.59999L466.9 115.59999L466.9 0z" stroke="none" fill="#461D7C" fill-rule="nonzero" />
</g>
</svg>